<svg width="517" height="156" viewBox="0 0 517 156" fill="none" xmlns="http://www.w3.org/2000/svg">
<path d="M26.176 40.88L20.48 18.352L14.784 40.88H26.176ZM39.424 57.648V62H26.944V57.648H30.4L27.2 44.912H13.76L10.56 57.648H14.08V62H1.6V57.648H5.632L16.768 14H24.32L35.264 57.648H39.424ZM53.16 57.648H66.728V33.904L53.16 42.416V57.648ZM43.944 73.648H47.912V34.416H43.88V30H53.16V37.296L64.232 30.32C65.256 29.68 66.344 29.36 67.496 29.36C68.648 29.36 69.6507 29.7227 70.504 30.448C71.4 31.1307 71.848 32.1547 71.848 33.52V55.984C71.848 57.9467 71.5493 59.2907 70.952 60.016C69.928 61.3387 68.3067 62 66.088 62H53.16V73.648H57.384V78H43.944V73.648ZM78.2625 36.272C78.2625 32.048 80.4598 29.936 84.8545 29.936H95.6705C97.7612 29.936 99.2758 30.3413 100.215 31.152C101.153 31.9627 101.623 33.456 101.623 35.632V41.584L83.3825 53.104V57.648H96.5665V53.936H101.623V57.328C101.623 58.608 101.217 59.7173 100.407 60.656C99.6385 61.552 98.3372 62 96.5025 62H83.3825C81.5478 62 80.2252 61.552 79.4145 60.656C78.6465 59.7173 78.2625 58.608 78.2625 57.328V36.272ZM83.3825 47.92L96.5025 39.664V34.352H83.3825V47.92ZM127.597 57.648H131.309V47.792H116.717V57.648H120.429V62H107.693V57.648H111.789V34.48H107.693V30H120.429V34.48H116.717V43.184H131.309V34.48H127.597V30H140.397V34.48H136.301V57.648H140.397V62H127.597V57.648ZM146.13 57.456H150.29V34.544H146.13V30H159.57V34.544H155.282V47.28L165.906 40.56C166.93 39.92 167.954 39.6 168.978 39.6C170.045 39.6 170.962 40.0053 171.73 40.816C172.498 41.6267 172.882 42.6933 172.882 44.016V56.368C172.882 58.2453 172.647 59.5253 172.178 60.208C171.239 61.4027 169.597 62 167.25 62H146.13V57.456ZM186.386 57.648H190.546V62H177.106V57.648H181.138V34.352H177.106V30H190.546V34.352H186.386V57.648ZM167.826 44.528L155.282 52.4V57.648H167.826V44.528ZM4.16 96.352V92H14.016L27.584 119.968L41.024 92H50.88V96.352H46.848V135.648H50.88V140H37.44V135.648H41.6V102.688L29.504 127.584H25.472L13.44 102.496V135.648H17.6V140H4.16V135.648H8.192V96.352H4.16ZM84.2635 108V112.352H80.4235L69.1595 150.304C68.6048 152.139 67.9008 153.547 67.0475 154.528C66.2368 155.509 64.8928 156 63.0155 156H58.9835V151.712H63.9755L66.8555 141.856L57.1915 112.352H53.2875V108H64.9355V112.352H61.9275L69.0955 134.24L75.6235 112.352H72.5515V108H84.2635ZM112.588 135.712V140H99.34V135.712H103.564V112.48H99.596L91.404 134.304C90.7213 136.139 89.8893 137.547 88.908 138.528C87.9693 139.509 86.5613 140 84.684 140H81.1V135.712H86.092L95.052 112.48H90.764V108H108.428V135.712H112.588ZM118.638 135.456H122.734V112.544H118.638V108H132.078V112.544H127.79V125.28L138.414 118.56C139.438 117.92 140.462 117.6 141.486 117.6C142.552 117.6 143.47 118.005 144.238 118.816C145.006 119.627 145.39 120.693 145.39 122.016V134.368C145.39 136.245 145.134 137.525 144.622 138.208C143.726 139.403 142.104 140 139.758 140H118.638V135.456ZM140.334 122.528L127.79 130.4V135.648H140.334V122.528ZM153.033 135.648H158.025V112.544H152.393V118.496H147.913V108H173.193V118.496H168.841V112.544H163.081V135.648H168.073V140H153.033V135.648ZM205.661 135.648H209.757V140H200.669V116.384L186.653 140H177.693V135.52H181.789V112.48H177.693V108H186.717V131.424L200.669 108H209.757V112.48H205.661V135.648ZM235.153 109.536C236.049 108.853 237.137 108.512 238.417 108.512C239.74 108.512 240.849 108.96 241.745 109.856C242.684 110.752 243.153 112.139 243.153 114.016V134.368C243.153 136.16 242.876 137.397 242.321 138.08C241.212 139.36 239.59 140 237.457 140H215.185V135.648H219.217V96.352H215.249V92H228.625C232.977 92 235.153 93.8987 235.153 97.696V109.536ZM229.969 112.8V96.544H224.465V116.256L229.969 112.8ZM238.033 112.864L224.465 121.376V135.584H238.033V112.864ZM269.454 140H253.518C250.446 140 248.675 138.848 248.206 136.544C248.035 135.861 247.95 135.136 247.95 134.368V113.632C247.95 111.84 248.441 110.453 249.422 109.472C250.446 108.448 251.982 107.936 254.03 107.936H269.454V116.064H265.102V112.352H253.07V135.648H265.102V131.936H269.454V140ZM273.2 114.272C273.2 110.048 275.397 107.936 279.792 107.936H290.608C292.699 107.936 294.213 108.341 295.152 109.152C296.091 109.963 296.56 111.456 296.56 113.632V119.584L278.32 131.104V135.648H291.504V131.936H296.56V135.328C296.56 136.608 296.155 137.717 295.344 138.656C294.576 139.552 293.275 140 291.44 140H278.32C276.485 140 275.163 139.552 274.352 138.656C273.584 137.717 273.2 136.608 273.2 135.328V114.272ZM278.32 125.92L291.44 117.664V112.352H278.32V125.92ZM331.776 135.712V140H318.528V135.712H322.752V112.48H318.784L310.592 134.304C309.909 136.139 309.077 137.547 308.095 138.528C307.157 139.509 305.749 140 303.872 140H300.288V135.712H305.28L314.24 112.48H309.952V108H327.616V135.712H331.776ZM337.825 114.272C337.825 110.048 340.022 107.936 344.417 107.936H355.233C357.324 107.936 358.838 108.341 359.777 109.152C360.716 109.963 361.185 111.456 361.185 113.632V119.584L342.945 131.104V135.648H356.129V131.936H361.185V135.328C361.185 136.608 360.78 137.717 359.969 138.656C359.201 139.552 357.9 140 356.065 140H342.945C341.11 140 339.788 139.552 338.977 138.656C338.209 137.717 337.825 136.608 337.825 135.328V114.272ZM342.945 125.92L356.065 117.664V112.352H342.945V125.92ZM387.159 135.648H390.871V125.792H376.279V135.648H379.991V140H367.255V135.648H371.351V112.48H367.255V108H379.991V112.48H376.279V121.184H390.871V112.48H387.159V108H399.959V112.48H395.863V135.648H399.959V140H387.159V135.648ZM425.597 135.648H429.309V125.792H414.717V135.648H418.429V140H405.693V135.648H409.789V112.48H405.693V108H418.429V112.48H414.717V121.184H429.309V112.48H425.597V108H438.397V112.48H434.301V135.648H438.397V140H425.597V135.648ZM450.402 140C448.226 140 446.69 139.509 445.794 138.528C444.898 137.504 444.45 136.096 444.45 134.304V113.696C444.45 111.989 444.834 110.624 445.602 109.6C446.413 108.533 448.013 108 450.402 108H462.242C464.589 108 466.167 108.533 466.978 109.6C467.789 110.624 468.194 111.989 468.194 113.696V134.304C468.194 136.096 467.746 137.504 466.85 138.528C465.954 139.509 464.418 140 462.242 140H450.402ZM449.634 135.648H463.01V112.352H449.634V135.648ZM502.223 135.648H506.319V140H497.231V116.384L483.215 140H474.255V135.52H478.351V112.48H474.255V108H483.279V131.424L497.231 108H506.319V112.48H502.223V135.648ZM500.367 95.392C500.367 98.1653 499.407 100.491 497.487 102.368C495.524 104.245 493.22 105.184 490.575 105.184C487.844 105.184 485.519 104.224 483.599 102.304C481.679 100.384 480.719 98.08 480.719 95.392H484.111C484.111 97.0987 484.73 98.592 485.967 99.872C487.247 101.109 488.783 101.728 490.575 101.728C492.324 101.728 493.818 101.109 495.055 99.872C496.335 98.592 496.975 97.0987 496.975 95.392H500.367Z" fill="#F4CFA2"/>
<mask id="mask0_189_2" style="mask-type:alpha" maskUnits="userSpaceOnUse" x="1" y="14" width="506" height="142">
<path d="M26.176 40.88L20.48 18.352L14.784 40.88H26.176ZM39.424 57.648V62H26.944V57.648H30.4L27.2 44.912H13.76L10.56 57.648H14.08V62H1.6V57.648H5.632L16.768 14H24.32L35.264 57.648H39.424ZM53.16 57.648H66.728V33.904L53.16 42.416V57.648ZM43.944 73.648H47.912V34.416H43.88V30H53.16V37.296L64.232 30.32C65.256 29.68 66.344 29.36 67.496 29.36C68.648 29.36 69.6507 29.7227 70.504 30.448C71.4 31.1307 71.848 32.1547 71.848 33.52V55.984C71.848 57.9467 71.5493 59.2907 70.952 60.016C69.928 61.3387 68.3067 62 66.088 62H53.16V73.648H57.384V78H43.944V73.648ZM78.2625 36.272C78.2625 32.048 80.4598 29.936 84.8545 29.936H95.6705C97.7612 29.936 99.2758 30.3413 100.215 31.152C101.153 31.9627 101.623 33.456 101.623 35.632V41.584L83.3825 53.104V57.648H96.5665V53.936H101.623V57.328C101.623 58.608 101.217 59.7173 100.407 60.656C99.6385 61.552 98.3372 62 96.5025 62H83.3825C81.5478 62 80.2252 61.552 79.4145 60.656C78.6465 59.7173 78.2625 58.608 78.2625 57.328V36.272ZM83.3825 47.92L96.5025 39.664V34.352H83.3825V47.92ZM127.597 57.648H131.309V47.792H116.717V57.648H120.429V62H107.693V57.648H111.789V34.48H107.693V30H120.429V34.48H116.717V43.184H131.309V34.48H127.597V30H140.397V34.48H136.301V57.648H140.397V62H127.597V57.648ZM146.13 57.456H150.29V34.544H146.13V30H159.57V34.544H155.282V47.28L165.906 40.56C166.93 39.92 167.954 39.6 168.978 39.6C170.045 39.6 170.962 40.0053 171.73 40.816C172.498 41.6267 172.882 42.6933 172.882 44.016V56.368C172.882 58.2453 172.647 59.5253 172.178 60.208C171.239 61.4027 169.597 62 167.25 62H146.13V57.456ZM186.386 57.648H190.546V62H177.106V57.648H181.138V34.352H177.106V30H190.546V34.352H186.386V57.648ZM167.826 44.528L155.282 52.4V57.648H167.826V44.528ZM4.16 96.352V92H14.016L27.584 119.968L41.024 92H50.88V96.352H46.848V135.648H50.88V140H37.44V135.648H41.6V102.688L29.504 127.584H25.472L13.44 102.496V135.648H17.6V140H4.16V135.648H8.192V96.352H4.16ZM84.2635 108V112.352H80.4235L69.1595 150.304C68.6048 152.139 67.9008 153.547 67.0475 154.528C66.2368 155.509 64.8928 156 63.0155 156H58.9835V151.712H63.9755L66.8555 141.856L57.1915 112.352H53.2875V108H64.9355V112.352H61.9275L69.0955 134.24L75.6235 112.352H72.5515V108H84.2635ZM112.588 135.712V140H99.34V135.712H103.564V112.48H99.596L91.404 134.304C90.7213 136.139 89.8893 137.547 88.908 138.528C87.9693 139.509 86.5613 140 84.684 140H81.1V135.712H86.092L95.052 112.48H90.764V108H108.428V135.712H112.588ZM118.638 135.456H122.734V112.544H118.638V108H132.078V112.544H127.79V125.28L138.414 118.56C139.438 117.92 140.462 117.6 141.486 117.6C142.552 117.6 143.47 118.005 144.238 118.816C145.006 119.627 145.39 120.693 145.39 122.016V134.368C145.39 136.245 145.134 137.525 144.622 138.208C143.726 139.403 142.104 140 139.758 140H118.638V135.456ZM140.334 122.528L127.79 130.4V135.648H140.334V122.528ZM153.033 135.648H158.025V112.544H152.393V118.496H147.913V108H173.193V118.496H168.841V112.544H163.081V135.648H168.073V140H153.033V135.648ZM205.661 135.648H209.757V140H200.669V116.384L186.653 140H177.693V135.52H181.789V112.48H177.693V108H186.717V131.424L200.669 108H209.757V112.48H205.661V135.648ZM235.153 109.536C236.049 108.853 237.137 108.512 238.417 108.512C239.74 108.512 240.849 108.96 241.745 109.856C242.684 110.752 243.153 112.139 243.153 114.016V134.368C243.153 136.16 242.876 137.397 242.321 138.08C241.212 139.36 239.59 140 237.457 140H215.185V135.648H219.217V96.352H215.249V92H228.625C232.977 92 235.153 93.8987 235.153 97.696V109.536ZM229.969 112.8V96.544H224.465V116.256L229.969 112.8ZM238.033 112.864L224.465 121.376V135.584H238.033V112.864ZM269.454 140H253.518C250.446 140 248.675 138.848 248.206 136.544C248.035 135.861 247.95 135.136 247.95 134.368V113.632C247.95 111.84 248.441 110.453 249.422 109.472C250.446 108.448 251.982 107.936 254.03 107.936H269.454V116.064H265.102V112.352H253.07V135.648H265.102V131.936H269.454V140ZM273.2 114.272C273.2 110.048 275.397 107.936 279.792 107.936H290.608C292.699 107.936 294.213 108.341 295.152 109.152C296.091 109.963 296.56 111.456 296.56 113.632V119.584L278.32 131.104V135.648H291.504V131.936H296.56V135.328C296.56 136.608 296.155 137.717 295.344 138.656C294.576 139.552 293.275 140 291.44 140H278.32C276.485 140 275.163 139.552 274.352 138.656C273.584 137.717 273.2 136.608 273.2 135.328V114.272ZM278.32 125.92L291.44 117.664V112.352H278.32V125.92ZM331.776 135.712V140H318.528V135.712H322.752V112.48H318.784L310.592 134.304C309.909 136.139 309.077 137.547 308.095 138.528C307.157 139.509 305.749 140 303.872 140H300.288V135.712H305.28L314.24 112.48H309.952V108H327.616V135.712H331.776ZM337.825 114.272C337.825 110.048 340.022 107.936 344.417 107.936H355.233C357.324 107.936 358.838 108.341 359.777 109.152C360.716 109.963 361.185 111.456 361.185 113.632V119.584L342.945 131.104V135.648H356.129V131.936H361.185V135.328C361.185 136.608 360.78 137.717 359.969 138.656C359.201 139.552 357.9 140 356.065 140H342.945C341.11 140 339.788 139.552 338.977 138.656C338.209 137.717 337.825 136.608 337.825 135.328V114.272ZM342.945 125.92L356.065 117.664V112.352H342.945V125.92ZM387.159 135.648H390.871V125.792H376.279V135.648H379.991V140H367.255V135.648H371.351V112.48H367.255V108H379.991V112.48H376.279V121.184H390.871V112.48H387.159V108H399.959V112.48H395.863V135.648H399.959V140H387.159V135.648ZM425.597 135.648H429.309V125.792H414.717V135.648H418.429V140H405.693V135.648H409.789V112.48H405.693V108H418.429V112.48H414.717V121.184H429.309V112.48H425.597V108H438.397V112.48H434.301V135.648H438.397V140H425.597V135.648ZM450.402 140C448.226 140 446.69 139.509 445.794 138.528C444.898 137.504 444.45 136.096 444.45 134.304V113.696C444.45 111.989 444.834 110.624 445.602 109.6C446.413 108.533 448.013 108 450.402 108H462.242C464.589 108 466.167 108.533 466.978 109.6C467.789 110.624 468.194 111.989 468.194 113.696V134.304C468.194 136.096 467.746 137.504 466.85 138.528C465.954 139.509 464.418 140 462.242 140H450.402ZM449.634 135.648H463.01V112.352H449.634V135.648ZM502.223 135.648H506.319V140H497.231V116.384L483.215 140H474.255V135.52H478.351V112.48H474.255V108H483.279V131.424L497.231 108H506.319V112.48H502.223V135.648ZM500.367 95.392C500.367 98.1653 499.407 100.491 497.487 102.368C495.524 104.245 493.22 105.184 490.575 105.184C487.844 105.184 485.519 104.224 483.599 102.304C481.679 100.384 480.719 98.08 480.719 95.392H484.111C484.111 97.0987 484.73 98.592 485.967 99.872C487.247 101.109 488.783 101.728 490.575 101.728C492.324 101.728 493.818 101.109 495.055 99.872C496.335 98.592 496.975 97.0987 496.975 95.392H500.367Z" fill="#F4CFA2"/>
</mask>
<g mask="url(#mask0_189_2)">
<rect width="260.832" height="311.829" transform="matrix(0.963441 -0.267921 0.397445 0.917626 155 -30.1175)" fill="#DD2222"/>
<rect width="6.14261" height="311.829" transform="matrix(0.963441 -0.267921 0.397445 0.917626 15.7783 -99.3542)" fill="#DD2222"/>
<rect width="1.85031" height="311.829" transform="matrix(0.963441 -0.267921 0.397445 0.917626 23 -103.354)" fill="#DD2222"/>
<rect width="1.85031" height="311.829" transform="matrix(0.963441 -0.267921 0.397445 0.917626 56 -126.504)" fill="#DD2222"/>
<rect width="12.3738" height="311.829" transform="matrix(0.963441 -0.267921 0.397445 0.917626 -55 -112.685)" fill="#DD2222"/>
</g>
</svg>
