<svg width="290" height="305" viewBox="0 0 290 305" fill="none" xmlns="http://www.w3.org/2000/svg">
<path fill-rule="evenodd" clip-rule="evenodd" d="M251.639 28.9256L251.736 28.1853L251.015 28.3773L207.526 39.9494L207.367 39.9916L207.265 40.1197L74.396 205.757L74.1022 206.124L74.4493 206.44L97.8747 227.784L98.2345 228.112L98.5719 227.761L245.496 74.9296L245.61 74.8111L245.631 74.6482L251.639 28.9256ZM207.942 40.8735L250.55 29.5357L244.661 74.355L98.1883 226.717L75.4698 206.017L207.942 40.8735ZM51.5756 186.471L51.206 186.135L50.8692 186.504L43.1121 195.018L42.7753 195.387L43.1449 195.724L68.9131 219.203L26.4746 265.78L26.1378 266.149L26.5074 266.486L45.7409 284.011L46.1105 284.348L46.4473 283.978L88.8858 237.401L110.709 257.285L111.078 257.622L111.415 257.252L119.172 248.738L119.509 248.369L119.139 248.032L51.5756 186.471ZM44.188 195.322L51.2717 187.547L118.096 248.435L111.013 256.209L89.1897 236.325L88.8201 235.988L88.4834 236.358L46.0448 282.935L27.5505 266.084L69.9891 219.507L70.3258 219.137L69.9562 218.8L44.188 195.322Z" fill="#DD2222"/>
<path d="M251.736 28.1853L257.189 28.9018L258.259 20.7581L250.322 22.8702L251.736 28.1853ZM251.639 28.9256L246.186 28.2091L246.186 28.2091L251.639 28.9256ZM251.015 28.3773L249.6 23.0622L249.6 23.0622L251.015 28.3773ZM207.526 39.9494L206.112 34.6343L206.112 34.6343L207.526 39.9494ZM207.367 39.9916L205.953 34.6766L204.208 35.1411L203.077 36.5501L207.367 39.9916ZM207.265 40.1197L202.974 36.6782L202.974 36.6782L207.265 40.1197ZM74.396 205.757L70.1058 202.316L70.1057 202.316L74.396 205.757ZM74.1022 206.124L69.812 202.682L66.5804 206.711L70.3979 210.189L74.1022 206.124ZM74.4493 206.44L78.1535 202.374L74.4493 206.44ZM98.2345 228.112L94.5302 232.177L98.4884 235.784L102.199 231.923L98.2345 228.112ZM98.5719 227.761L102.537 231.572L102.537 231.572L98.5719 227.761ZM245.496 74.9296L249.461 78.7413L249.461 78.7412L245.496 74.9296ZM245.61 74.8111L249.575 78.6228L250.827 77.3197L251.063 75.5277L245.61 74.8111ZM245.631 74.6482L251.084 75.3647L251.084 75.3647L245.631 74.6482ZM250.55 29.5357L256.003 30.2522L257.073 22.1085L249.136 24.2206L250.55 29.5357ZM207.942 40.8735L206.528 35.5585L204.782 36.023L203.652 37.432L207.942 40.8735ZM244.661 74.355L248.626 78.1667L249.879 76.8636L250.114 75.0715L244.661 74.355ZM98.1883 226.717L94.4841 230.782L98.4422 234.389L102.153 230.528L98.1883 226.717ZM75.4698 206.017L71.1796 202.575L67.948 206.604L71.7655 210.082L75.4698 206.017ZM51.206 186.135L54.9103 182.069L50.8448 178.365L47.1405 182.43L51.206 186.135ZM50.8692 186.504L46.8037 182.8L50.8692 186.504ZM43.1121 195.018L39.0465 191.314L43.1121 195.018ZM42.7753 195.387L38.7098 191.683L35.0055 195.749L39.071 199.453L42.7753 195.387ZM68.9131 219.203L72.9786 222.907L76.6829 218.842L72.6174 215.137L68.9131 219.203ZM26.1378 266.149L22.0723 262.445L18.3681 266.511L22.4336 270.215L26.1378 266.149ZM46.1105 284.348L42.4062 288.413L46.4717 292.117L50.176 288.052L46.1105 284.348ZM88.8858 237.401L92.5901 233.336L88.5246 229.631L84.8203 233.697L88.8858 237.401ZM110.709 257.285L107.004 261.35L110.709 257.285ZM111.078 257.622L107.374 261.687L111.44 265.391L115.144 261.326L111.078 257.622ZM119.509 248.369L123.574 252.073L127.279 248.008L123.213 244.303L119.509 248.369ZM119.139 248.032L115.435 252.098L119.139 248.032ZM51.2717 187.547L54.9759 183.482L50.9104 179.778L47.2062 183.843L51.2717 187.547ZM44.188 195.322L40.1225 191.618L36.4182 195.683L40.4837 199.387L44.188 195.322ZM118.096 248.435L122.162 252.139L125.866 248.073L121.801 244.369L118.096 248.435ZM111.013 256.209L107.308 260.274L111.374 263.979L115.078 259.913L111.013 256.209ZM89.1897 236.325L92.894 232.26L89.1897 236.325ZM88.8201 235.988L92.5244 231.923L88.4589 228.219L84.7546 232.284L88.8201 235.988ZM88.4834 236.358L92.5489 240.062L88.4834 236.358ZM46.0448 282.935L42.3406 287L46.4061 290.705L50.1103 286.639L46.0448 282.935ZM27.5505 266.084L23.485 262.379L19.7807 266.445L23.8463 270.149L27.5505 266.084ZM70.3258 219.137L74.3913 222.842L78.0956 218.776L74.0301 215.072L70.3258 219.137ZM69.9562 218.8L73.6605 214.735L69.9562 218.8ZM246.283 27.4687L246.186 28.2091L257.092 29.6421L257.189 28.9018L246.283 27.4687ZM252.429 33.6923L253.15 33.5003L250.322 22.8702L249.6 23.0622L252.429 33.6923ZM208.94 45.2644L252.429 33.6923L249.6 23.0622L206.112 34.6343L208.94 45.2644ZM208.782 45.3067L208.94 45.2644L206.112 34.6343L205.953 34.6766L208.782 45.3067ZM211.555 43.5612L211.658 43.4331L203.077 36.5501L202.974 36.6782L211.555 43.5612ZM78.6862 209.199L211.555 43.5612L202.974 36.6782L70.1058 202.316L78.6862 209.199ZM78.3925 209.565L78.6862 209.199L70.1057 202.316L69.812 202.682L78.3925 209.565ZM78.1535 202.374L77.8065 202.058L70.3979 210.189L70.745 210.505L78.1535 202.374ZM101.579 223.718L78.1535 202.374L70.745 210.505L94.1704 231.849L101.579 223.718ZM101.939 224.046L101.579 223.718L94.1704 231.849L94.5302 232.177L101.939 224.046ZM94.6069 223.949L94.2696 224.3L102.199 231.923L102.537 231.572L94.6069 223.949ZM241.531 71.1179L94.6069 223.949L102.537 231.572L249.461 78.7413L241.531 71.1179ZM241.645 70.9994L241.531 71.1179L249.461 78.7412L249.575 78.6228L241.645 70.9994ZM240.178 73.9316L240.157 74.0945L251.063 75.5277L251.084 75.3647L240.178 73.9316ZM246.186 28.2091L240.178 73.9317L251.084 75.3647L257.092 29.6421L246.186 28.2091ZM249.136 24.2206L206.528 35.5585L209.356 46.1886L251.964 34.8507L249.136 24.2206ZM250.114 75.0715L256.003 30.2522L245.097 28.8191L239.208 73.6385L250.114 75.0715ZM102.153 230.528L248.626 78.1667L240.696 70.5433L94.2234 222.905L102.153 230.528ZM71.7655 210.082L94.4841 230.782L101.893 222.651L79.1741 201.951L71.7655 210.082ZM203.652 37.432L71.1796 202.575L79.7601 209.458L212.232 44.315L203.652 37.432ZM47.5017 190.2L47.8713 190.537L55.2799 182.406L54.9103 182.069L47.5017 190.2ZM54.9347 190.209L55.2715 189.839L47.1405 182.43L46.8037 182.8L54.9347 190.209ZM47.1776 198.722L54.9347 190.209L46.8037 182.8L39.0465 191.314L47.1776 198.722ZM46.8408 199.092L47.1776 198.722L39.0465 191.314L38.7098 191.683L46.8408 199.092ZM46.8492 191.659L46.4796 191.322L39.071 199.453L39.4406 199.79L46.8492 191.659ZM72.6174 215.137L46.8492 191.659L39.4406 199.79L65.2088 223.268L72.6174 215.137ZM30.5401 269.484L72.9786 222.907L64.8476 215.499L22.4091 262.076L30.5401 269.484ZM30.2033 269.854L30.5401 269.484L22.4091 262.076L22.0723 262.445L30.2033 269.854ZM30.2117 262.421L29.8421 262.084L22.4336 270.215L22.8032 270.552L30.2117 262.421ZM49.4452 279.945L30.2117 262.421L22.8032 270.552L42.0366 288.076L49.4452 279.945ZM49.8148 280.282L49.4452 279.945L42.0366 288.076L42.4062 288.413L49.8148 280.282ZM42.3818 280.274L42.045 280.643L50.176 288.052L50.5128 287.682L42.3818 280.274ZM84.8203 233.697L42.3818 280.274L50.5128 287.682L92.9513 241.105L84.8203 233.697ZM114.413 253.219L92.5901 233.336L85.1815 241.467L107.004 261.35L114.413 253.219ZM114.783 253.556L114.413 253.219L107.004 261.35L107.374 261.687L114.783 253.556ZM107.35 253.548L107.013 253.917L115.144 261.326L115.481 260.956L107.35 253.548ZM115.107 245.034L107.35 253.548L115.481 260.956L123.238 252.443L115.107 245.034ZM115.443 244.665L115.107 245.034L123.238 252.443L123.574 252.073L115.443 244.665ZM115.435 252.098L115.805 252.434L123.213 244.303L122.844 243.967L115.435 252.098ZM47.8713 190.537L115.435 252.098L122.844 243.967L55.2799 182.406L47.8713 190.537ZM47.2062 183.843L40.1225 191.618L48.2535 199.026L55.3372 191.252L47.2062 183.843ZM121.801 244.369L54.9759 183.482L47.5674 191.613L114.392 252.5L121.801 244.369ZM115.078 259.913L122.162 252.139L114.031 244.73L106.947 252.505L115.078 259.913ZM85.4854 240.391L107.308 260.274L114.717 252.143L92.894 232.26L85.4854 240.391ZM85.1158 240.054L85.4854 240.391L92.894 232.26L92.5244 231.923L85.1158 240.054ZM92.5489 240.062L92.8856 239.693L84.7546 232.284L84.4179 232.654L92.5489 240.062ZM50.1103 286.639L92.5489 240.062L84.4179 232.654L41.9793 279.231L50.1103 286.639ZM23.8463 270.149L42.3406 287L49.7491 278.869L31.2548 262.018L23.8463 270.149ZM65.9236 215.803L23.485 262.379L31.616 269.788L74.0546 223.211L65.9236 215.803ZM66.2603 215.433L65.9236 215.803L74.0546 223.211L74.3913 222.842L66.2603 215.433ZM66.2519 222.866L66.6215 223.203L74.0301 215.072L73.6605 214.735L66.2519 222.866ZM40.4837 199.387L66.2519 222.866L73.6605 214.735L47.8923 191.256L40.4837 199.387Z" fill="#DD2222"/>
<path d="M249.462 31.2007L88.1708 215.155" stroke="#DD2222" stroke-width="11"/>
</svg>
