<svg width="334" height="325" viewBox="0 0 334 325" fill="none" xmlns="http://www.w3.org/2000/svg">
<path d="M143.125 4L132.75 14.0311L136.25 20.0933L148.375 13.0933" stroke="black" stroke-width="11"/>
<path d="M75 129L78.5 143H85.5V129" stroke="black" stroke-width="11"/>
<path fill-rule="evenodd" clip-rule="evenodd" d="M81.4662 48.9256L81.369 48.1853L82.0906 48.3773L125.579 59.9494L125.738 59.9916L125.84 60.1197L258.709 225.757L259.003 226.124L258.656 226.44L235.23 247.784L234.871 248.112L234.533 247.761L87.6093 94.9296L87.4954 94.8111L87.474 94.6482L81.4662 48.9256ZM125.163 60.8735L82.555 49.5357L88.4441 94.355L234.917 246.717L257.635 226.017L125.163 60.8735ZM281.53 206.471L281.899 206.135L282.236 206.504L289.993 215.018L290.33 215.387L289.96 215.724L264.192 239.203L306.631 285.78L306.967 286.149L306.598 286.486L287.364 304.011L286.995 304.348L286.658 303.978L244.219 257.401L222.396 277.285L222.027 277.622L221.69 277.252L213.933 268.738L213.596 268.369L213.966 268.032L281.53 206.471ZM288.917 215.322L281.834 207.547L215.009 268.435L222.093 276.209L243.915 256.325L244.285 255.988L244.622 256.358L287.06 302.935L305.555 286.084L263.116 239.507L262.779 239.137L263.149 238.8L288.917 215.322Z" fill="#DD2222"/>
<path d="M81.369 48.1853L75.9158 48.9018L74.8458 40.7581L82.7833 42.8702L81.369 48.1853ZM81.4662 48.9256L76.0131 49.6421L76.0131 49.6421L81.4662 48.9256ZM82.0906 48.3773L80.6762 53.6923L80.6762 53.6923L82.0906 48.3773ZM125.579 59.9494L126.993 54.6343L126.993 54.6343L125.579 59.9494ZM125.738 59.9916L127.152 54.6766L128.898 55.1411L130.028 56.5501L125.738 59.9916ZM125.84 60.1197L130.131 56.6782L130.131 56.6782L125.84 60.1197ZM258.709 225.757L262.999 222.316L262.999 222.316L258.709 225.757ZM259.003 226.124L263.293 222.682L266.525 226.711L262.707 230.189L259.003 226.124ZM258.656 226.44L262.36 230.505L258.656 226.44ZM235.23 247.784L231.526 243.718L235.23 247.784ZM234.871 248.112L238.575 252.177L234.617 255.784L230.906 251.923L234.871 248.112ZM234.533 247.761L230.568 251.572L230.568 251.572L234.533 247.761ZM87.6093 94.9296L83.6444 98.7413L83.6443 98.7412L87.6093 94.9296ZM87.4954 94.8111L83.5305 98.6228L82.2778 97.3197L82.0423 95.5277L87.4954 94.8111ZM87.474 94.6482L82.0209 95.3647L82.0209 95.3647L87.474 94.6482ZM82.555 49.5357L77.1019 50.2522L76.0318 42.1085L83.9693 44.2206L82.555 49.5357ZM125.163 60.8735L126.577 55.5585L128.323 56.023L129.453 57.432L125.163 60.8735ZM88.4441 94.355L84.4792 98.1667L83.2265 96.8636L82.991 95.0715L88.4441 94.355ZM234.917 246.717L238.621 250.782L234.663 254.389L230.952 250.528L234.917 246.717ZM257.635 226.017L261.926 222.575L265.157 226.604L261.34 230.082L257.635 226.017ZM281.899 206.135L278.195 202.069L282.26 198.365L285.965 202.43L281.899 206.135ZM281.53 206.471L277.825 202.406L281.53 206.471ZM282.236 206.504L278.17 210.209L282.236 206.504ZM289.993 215.018L294.059 211.314L289.993 215.018ZM290.33 215.387L294.395 211.683L298.1 215.749L294.034 219.453L290.33 215.387ZM289.96 215.724L293.665 219.79L289.96 215.724ZM264.192 239.203L260.127 242.907L256.422 238.842L260.488 235.137L264.192 239.203ZM306.967 286.149L311.033 282.445L314.737 286.511L310.672 290.215L306.967 286.149ZM306.598 286.486L310.302 290.552L306.598 286.486ZM287.364 304.011L283.66 299.945L287.364 304.011ZM286.995 304.348L290.699 308.413L286.633 312.117L282.929 308.052L286.995 304.348ZM244.219 257.401L240.515 253.336L244.581 249.631L248.285 253.697L244.219 257.401ZM222.396 277.285L218.692 273.219L222.396 277.285ZM222.027 277.622L225.731 281.687L221.666 285.391L217.961 281.326L222.027 277.622ZM221.69 277.252L217.625 280.956L221.69 277.252ZM213.933 268.738L217.998 265.034L213.933 268.738ZM213.596 268.369L209.531 272.073L205.826 268.008L209.892 264.303L213.596 268.369ZM213.966 268.032L217.67 272.098L213.966 268.032ZM281.834 207.547L278.129 203.482L282.195 199.778L285.899 203.843L281.834 207.547ZM288.917 215.322L292.983 211.618L296.687 215.683L292.621 219.387L288.917 215.322ZM215.009 268.435L210.943 272.139L207.239 268.073L211.305 264.369L215.009 268.435ZM222.093 276.209L225.797 280.274L221.731 283.979L218.027 279.913L222.093 276.209ZM243.915 256.325L240.211 252.26L243.915 256.325ZM244.285 255.988L240.581 251.923L244.646 248.219L248.351 252.284L244.285 255.988ZM287.06 302.935L290.765 307L286.699 310.705L282.995 306.639L287.06 302.935ZM305.555 286.084L309.62 282.379L313.324 286.445L309.259 290.149L305.555 286.084ZM262.779 239.137L258.714 242.842L255.01 238.776L259.075 235.072L262.779 239.137ZM263.149 238.8L266.853 242.866L263.149 238.8ZM86.8221 47.4688L86.9194 48.2091L76.0131 49.6421L75.9158 48.9018L86.8221 47.4688ZM80.6762 53.6923L79.9547 53.5003L82.7833 42.8702L83.5049 43.0622L80.6762 53.6923ZM124.165 65.2644L80.6762 53.6923L83.5049 43.0622L126.993 54.6343L124.165 65.2644ZM124.323 65.3067L124.165 65.2644L126.993 54.6343L127.152 54.6766L124.323 65.3067ZM121.55 63.5612L121.447 63.4331L130.028 56.5501L130.131 56.6782L121.55 63.5612ZM254.419 229.199L121.55 63.5612L130.131 56.6782L262.999 222.316L254.419 229.199ZM254.713 229.565L254.419 229.199L262.999 222.316L263.293 222.682L254.713 229.565ZM254.952 222.374L255.299 222.058L262.707 230.189L262.36 230.505L254.952 222.374ZM231.526 243.718L254.952 222.374L262.36 230.505L238.935 251.849L231.526 243.718ZM231.166 244.046L231.526 243.718L238.935 251.849L238.575 252.177L231.166 244.046ZM238.498 243.949L238.836 244.3L230.906 251.923L230.568 251.572L238.498 243.949ZM91.5743 91.1179L238.498 243.949L230.568 251.572L83.6444 98.7413L91.5743 91.1179ZM91.4604 90.9994L91.5743 91.1179L83.6443 98.7412L83.5305 98.6228L91.4604 90.9994ZM92.9272 93.9316L92.9486 94.0945L82.0423 95.5277L82.0209 95.3647L92.9272 93.9316ZM86.9194 48.2091L92.9272 93.9317L82.0209 95.3647L76.0131 49.6421L86.9194 48.2091ZM83.9693 44.2206L126.577 55.5585L123.749 66.1886L81.1407 54.8507L83.9693 44.2206ZM82.991 95.0715L77.1019 50.2522L88.0081 48.8191L93.8972 93.6385L82.991 95.0715ZM230.952 250.528L84.4792 98.1667L92.4091 90.5433L238.882 242.905L230.952 250.528ZM261.34 230.082L238.621 250.782L231.213 242.651L253.931 221.951L261.34 230.082ZM129.453 57.432L261.926 222.575L253.345 229.458L120.873 64.315L129.453 57.432ZM285.603 210.2L285.234 210.537L277.825 202.406L278.195 202.069L285.603 210.2ZM278.17 210.209L277.834 209.839L285.965 202.43L286.301 202.8L278.17 210.209ZM285.928 218.722L278.17 210.209L286.301 202.8L294.059 211.314L285.928 218.722ZM286.264 219.092L285.928 218.722L294.059 211.314L294.395 211.683L286.264 219.092ZM286.256 211.659L286.626 211.322L294.034 219.453L293.665 219.79L286.256 211.659ZM260.488 235.137L286.256 211.659L293.665 219.79L267.896 243.268L260.488 235.137ZM302.565 289.484L260.127 242.907L268.258 235.499L310.696 282.076L302.565 289.484ZM302.902 289.854L302.565 289.484L310.696 282.076L311.033 282.445L302.902 289.854ZM302.893 282.421L303.263 282.084L310.672 290.215L310.302 290.552L302.893 282.421ZM283.66 299.945L302.893 282.421L310.302 290.552L291.069 308.076L283.66 299.945ZM283.29 300.282L283.66 299.945L291.069 308.076L290.699 308.413L283.29 300.282ZM290.723 300.274L291.06 300.643L282.929 308.052L282.592 307.682L290.723 300.274ZM248.285 253.697L290.723 300.274L282.592 307.682L240.154 261.105L248.285 253.697ZM218.692 273.219L240.515 253.336L247.924 261.467L226.101 281.35L218.692 273.219ZM218.323 273.556L218.692 273.219L226.101 281.35L225.731 281.687L218.323 273.556ZM225.756 273.548L226.092 273.917L217.961 281.326L217.625 280.956L225.756 273.548ZM217.998 265.034L225.756 273.548L217.625 280.956L209.867 272.443L217.998 265.034ZM217.662 264.665L217.998 265.034L209.867 272.443L209.531 272.073L217.662 264.665ZM217.67 272.098L217.3 272.434L209.892 264.303L210.262 263.967L217.67 272.098ZM285.234 210.537L217.67 272.098L210.262 263.967L277.825 202.406L285.234 210.537ZM285.899 203.843L292.983 211.618L284.852 219.026L277.768 211.252L285.899 203.843ZM211.305 264.369L278.129 203.482L285.538 211.613L218.713 272.5L211.305 264.369ZM218.027 279.913L210.943 272.139L219.074 264.73L226.158 272.505L218.027 279.913ZM247.62 260.391L225.797 280.274L218.388 272.143L240.211 252.26L247.62 260.391ZM247.989 260.054L247.62 260.391L240.211 252.26L240.581 251.923L247.989 260.054ZM240.556 260.062L240.22 259.693L248.351 252.284L248.687 252.654L240.556 260.062ZM282.995 306.639L240.556 260.062L248.687 252.654L291.126 299.231L282.995 306.639ZM309.259 290.149L290.765 307L283.356 298.869L301.85 282.018L309.259 290.149ZM267.182 235.803L309.62 282.379L301.489 289.788L259.051 243.211L267.182 235.803ZM266.845 235.433L267.182 235.803L259.051 243.211L258.714 242.842L266.845 235.433ZM266.853 242.866L266.484 243.203L259.075 235.072L259.445 234.735L266.853 242.866ZM292.621 219.387L266.853 242.866L259.445 234.735L285.213 211.256L292.621 219.387Z" fill="#DD2222"/>
<path d="M83.6431 51.2007L244.934 235.155" stroke="#DD2222" stroke-width="11"/>
<path d="M184 64.9295L312.202 62L312.202 68.3382L186.511 74.0825" stroke="black" stroke-width="11"/>
<path d="M74.2363 172L18.3265 273.686L8.85033 286.7L24.1445 295.571L29.8692 280.38L83.1424 178.024" stroke="black" stroke-width="11"/>
</svg>
